<svg xmlns="http://www.w3.org/2000/svg" width="32" height="32">
    <path style="stroke:none;fill-rule:nonzero;fill:#000;fill-opacity:1" d="M4 6c0 .55.45 1 1 1h22c.55 0 1-.45 1-1s-.45-1-1-1H5c-.55 0-1 .45-1 1Zm4-4c0 .55.45 1 1 1h14c.55 0 1-.45 1-1s-.45-1-1-1H9c-.55 0-1 .45-1 1Zm5.531 11.152a1.006 1.006 0 0 0-1.015-.027A1.004 1.004 0 0 0 12 14v10c0 .363.2.7.516.875.316.176.707.164 1.015-.027l8-5a1 1 0 0 0 0-1.696Zm0 0"/>
    <path style="stroke:none;fill-rule:nonzero;fill:#000;fill-opacity:1" d="M3 29a3 3 0 0 1-3-3V12a3 3 0 0 1 3-3h26a3 3 0 0 1 3 3v14a3 3 0 0 1-3 3Zm26-2c.55 0 1-.45 1-1V12c0-.55-.45-1-1-1H3c-.55 0-1 .45-1 1v14c0 .55.45 1 1 1Zm0 0"/>
</svg>
