<svg xmlns="http://www.w3.org/2000/svg" width="32" height="32">
    <path style="stroke:none;fill-rule:nonzero;fill:#000;fill-opacity:1" d="m16 5.496-1.434-1.473C11.2.563 5.027 1.758 2.801 6.105c-1.047 2.047-1.281 5 .629 8.77C5.27 18.508 9.098 22.855 16 27.59c6.902-4.735 10.73-9.082 12.57-12.715 1.91-3.77 1.676-6.723.63-8.77C26.972 1.758 20.8.56 17.433 4.02ZM16 30C-14.664 9.734 6.559-6.078 15.648 2.285c.122.11.239.227.352.344.113-.117.23-.23.352-.34C25.442-6.086 46.664 9.734 16 30Zm0 0"/>
</svg>
