<svg xmlns="http://www.w3.org/2000/svg" width="32" height="32">
    <path style="stroke:none;fill-rule:evenodd;fill:#000;fill-opacity:1" d="M0 7c0-.55.45-1 1-1h1c4.402 0 7.652 2.48 9.746 4.836A21.546 21.546 0 0 1 14 13.898c.52-.859 1.273-1.957 2.254-3.062C18.348 8.48 21.598 6 26 6v2c-3.598 0-6.348 2.02-8.254 4.164A19.373 19.373 0 0 0 15.113 16a19.209 19.209 0 0 0 2.633 3.836C19.656 21.98 22.406 24 26 24v2c-4.402 0-7.652-2.48-9.746-4.836A21.022 21.022 0 0 1 14 18.102c-.52.859-1.273 1.957-2.254 3.062C9.652 23.52 6.402 26 2 26H1c-.55 0-1-.45-1-1s.45-1 1-1h1c3.598 0 6.348-2.02 8.254-4.164A19.373 19.373 0 0 0 12.887 16a19.209 19.209 0 0 0-2.633-3.836C8.344 10.02 5.594 8 2 8H1c-.55 0-1-.45-1-1Zm0 0"/>
    <path style="stroke:none;fill-rule:nonzero;fill:#000;fill-opacity:1" d="M26 10.934V3.066c0-.191.113-.367.29-.449a.49.49 0 0 1 .53.067l4.72 3.933c.241.2.241.567 0 .766l-4.72 3.933a.49.49 0 0 1-.53.067.498.498 0 0 1-.29-.45Zm0 18v-7.868c0-.191.113-.367.29-.449a.49.49 0 0 1 .53.067l4.72 3.933c.241.2.241.567 0 .766l-4.72 3.933a.49.49 0 0 1-.53.067.498.498 0 0 1-.29-.45Zm0 0"/>
</svg>
